<?xml version="1.0" encoding="iso-8859-1"?>
<!-- Generator: Adobe Illustrator 19.0.0, SVG Export Plug-In . SVG Version: 6.00 Build 0)  -->
<svg version="1.1" id="Capa_1" xmlns="http://www.w3.org/2000/svg" xmlns:xlink="http://www.w3.org/1999/xlink" x="0px" y="0px"
	 viewBox="0 0 437.333 437.333" fill="#4d26aa" style="enable-background:new 0 0 437.333 437.333;" xml:space="preserve">
<g>
	<g>
		<g>
			<path d="M373.333,144c0-23.627-8.373-32-32-32H96c-23.627,0-32,8.373-32,32v74.667h309.333V144z"/>
			<path d="M416,165.333c-11.782,0-21.333,9.551-21.333,21.333V240h-352v-53.333c0-11.782-9.551-21.333-21.333-21.333
				C9.551,165.333,0,174.885,0,186.667V272c0,11.782,9.551,21.333,21.333,21.333H32v32h32v-32h309.333v32h32v-32h10.528
				c11.814,0.024,21.419-9.519,21.472-21.333v-85.333C437.333,174.885,427.782,165.333,416,165.333z"/>
		</g>
	</g>
</g>
<g>
</g>
<g>
</g>
<g>
</g>
<g>
</g>
<g>
</g>
<g>
</g>
<g>
</g>
<g>
</g>
<g>
</g>
<g>
</g>
<g>
</g>
<g>
</g>
<g>
</g>
<g>
</g>
<g>
</g>
</svg>
